<?xml version="1.0" encoding="utf-8"?>
<!-- Generator: Adobe Illustrator 24.2.1, SVG Export Plug-In . SVG Version: 6.00 Build 0)  -->
<svg version="1.1" id="Warstwa_1" xmlns="http://www.w3.org/2000/svg" xmlns:xlink="http://www.w3.org/1999/xlink" x="0px" y="0px"
	 viewBox="0 0 18.38 11.52" style="enable-background:new 0 0 18.38 11.52;" xml:space="preserve">
<style type="text/css">
	.st0{fill:#1D1D1B;}
</style>
<path class="st0" d="M14.06,11.52c-2.51,0-4.34-1.82-4.34-4.34c0-2.5,1.82-4.32,4.34-4.32c2.5,0,4.32,1.82,4.32,4.32v0.33H12.1
	l0.01,0.07c0.12,1.24,0.95,2.13,1.96,2.13c0.95,0,1.6-0.59,1.83-1.66C15.91,8.03,15.93,8,15.97,8h2.25c0.02,0,0.04,0.01,0.06,0.03
	c0.01,0.02,0.02,0.04,0.02,0.06C17.97,9.66,16.98,11.52,14.06,11.52 M14.06,4.67c-0.93,0-1.67,0.62-1.84,1.55l-0.01,0.07h3.68
	l-0.02-0.07C15.68,5.27,14.97,4.67,14.06,4.67 M0.07,11.52C0.03,11.52,0,11.49,0,11.45V0.07C0,0.03,0.03,0,0.07,0h5.69
	c1.6,0,2.89,1.31,2.89,2.91c0,0.93-0.46,1.81-1.22,2.36L7.35,5.33l0.1,0.04c1.09,0.46,1.79,1.51,1.79,2.67
	c0,1.92-1.56,3.48-3.48,3.48H0.07z M2.37,9.15h3.09c0.38,0,0.75-0.16,1.01-0.43c0.26-0.26,0.39-0.61,0.38-0.97
	c-0.04-1.32-1.4-1.39-1.68-1.39H2.37V9.15z M2.37,4.59h2.81c0.33,0,0.65-0.15,0.86-0.41c0.21-0.26,0.29-0.6,0.22-0.93
	C6.16,2.74,5.68,2.37,5.13,2.37H2.37V4.59z M11.52,2.37c-0.04,0-0.07-0.03-0.07-0.07V0.64c0-0.04,0.03-0.07,0.07-0.07h5.08
	c0.04,0,0.07,0.03,0.07,0.07v1.65c0,0.04-0.03,0.07-0.07,0.07H11.52z"/>
</svg>
