<?xml version="1.0" encoding="utf-8"?>
<!-- Generator: Adobe Illustrator 24.2.1, SVG Export Plug-In . SVG Version: 6.00 Build 0)  -->
<svg version="1.1" id="Warstwa_1" xmlns="http://www.w3.org/2000/svg" xmlns:xlink="http://www.w3.org/1999/xlink" x="0px" y="0px"
	 viewBox="0 0 48 48" style="enable-background:new 0 0 48 48;" xml:space="preserve">
<style type="text/css">
	.st0{fill:none;stroke:#C6C6C6;stroke-miterlimit:10;}
	.st1{fill:#C6C6C6;}
</style>
<circle class="st0" cx="24" cy="24" r="23.01"/>
<path class="st1" d="M28.87,29.76c-2.51,0-4.34-1.82-4.34-4.34c0-2.5,1.82-4.32,4.34-4.32c2.5,0,4.32,1.82,4.32,4.32v0.33h-6.28
	l0.01,0.07c0.12,1.24,0.95,2.13,1.96,2.13c0.95,0,1.6-0.59,1.83-1.66c0.01-0.02,0.03-0.05,0.07-0.05h2.25
	c0.02,0,0.04,0.01,0.06,0.03c0.01,0.02,0.02,0.04,0.02,0.06C32.78,27.9,31.79,29.76,28.87,29.76 M28.87,22.91
	c-0.93,0-1.67,0.62-1.84,1.55l-0.01,0.07h3.68l-0.02-0.07C30.49,23.51,29.78,22.91,28.87,22.91 M14.88,29.76
	c-0.04,0-0.07-0.03-0.07-0.07V18.31c0-0.04,0.03-0.07,0.07-0.07h5.69c1.6,0,2.89,1.31,2.89,2.91c0,0.93-0.46,1.81-1.22,2.36
	l-0.08,0.06l0.1,0.04c1.09,0.46,1.79,1.51,1.79,2.67c0,1.92-1.56,3.48-3.48,3.48H14.88z M17.18,27.39h3.09
	c0.38,0,0.75-0.16,1.01-0.43c0.26-0.26,0.39-0.61,0.38-0.97c-0.04-1.32-1.4-1.39-1.68-1.39h-2.8V27.39z M17.18,22.83h2.81
	c0.33,0,0.65-0.15,0.86-0.41c0.21-0.26,0.29-0.6,0.22-0.93c-0.1-0.51-0.58-0.88-1.13-0.88h-2.76V22.83z M26.33,20.61
	c-0.04,0-0.07-0.03-0.07-0.07v-1.66c0-0.04,0.03-0.07,0.07-0.07h5.08c0.04,0,0.07,0.03,0.07,0.07v1.65c0,0.04-0.03,0.07-0.07,0.07
	h-5.08V20.61z"/>
</svg>
