<?xml version="1.0" encoding="utf-8"?>
<!-- Generator: Adobe Illustrator 19.0.0, SVG Export Plug-In . SVG Version: 6.00 Build 0)  -->
<svg version="1.1" width="400px" height="400px" id="Warstwa_1" xmlns="http://www.w3.org/2000/svg" xmlns:xlink="http://www.w3.org/1999/xlink" x="0px" y="0px"
	 viewBox="0 0 240.6 25.2" style="enable-background:new 0 0 240.6 25.2;" xml:space="preserve">
<style type="text/css">
	.st0{fill:none;stroke:#FFFFFF;stroke-width:2;stroke-miterlimit:10;}
	.st1{fill:#FFFFFF;}
</style>
<g>
	<g>
		<g>
			<polyline class="st0" points="239.6,6.1 239.6,24.2 221.5,24.2 			"/>
			<line class="st0" x1="222.6" y1="7.2" x2="239.6" y2="24.2"/>
		</g>
		<g>
			<polyline class="st0" points="216.4,19.1 216.4,1 234.4,1 			"/>
			<line class="st0" x1="233.3" y1="17.9" x2="216.4" y2="1"/>
		</g>
	</g>
	<g>
		<path class="st1" d="M0,4.3h2l3,15.6h0.7L9.2,4.4h2.3L15,19.8h0.7l2.9-15.6h2l-3.5,17.3h-3.5L10.3,6.8L7,21.5H3.5L0,4.3z"/>
		<path class="st1" d="M31.6,12.8v6.4c0,0.6,0.5,1,1.5,1.1L33,21.8c-1.3,0-2.3-0.3-3-1c-1.5,0.7-3,1-4.5,1c-1.1,0-2-0.3-2.6-1
			C22.3,20.2,22,19.2,22,18c0-1.2,0.3-2.1,0.9-2.7c0.6-0.6,1.6-0.9,2.9-1.1l3.9-0.4v-1.1c0-0.9-0.2-1.5-0.5-1.8
			c-0.4-0.4-0.9-0.5-1.5-0.5c-1.3,0-2.7,0.1-4.2,0.3l-0.8,0.1l-0.1-1.4c1.8-0.4,3.5-0.5,4.9-0.5c1.4,0,2.4,0.3,3.1,1
			C31.3,10.4,31.6,11.4,31.6,12.8z M23.9,17.9c0,1.5,0.6,2.3,1.9,2.3c1.1,0,2.3-0.2,3.3-0.6l0.6-0.2v-4.1l-3.7,0.3
			c-0.8,0.1-1.3,0.3-1.6,0.7C24.1,16.7,23.9,17.2,23.9,17.9z"/>
		<path class="st1" d="M41.8,10.7h-4v6c0,1.4,0.1,2.4,0.3,2.8s0.7,0.7,1.5,0.7l2.2-0.1l0.1,1.5c-1.1,0.2-2,0.3-2.6,0.3
			c-1.3,0-2.2-0.3-2.7-1S36,19,36,17.3v-6.6h-1.8V9H36V5.2h1.8V9h4V10.7z"/>
		<path class="st1" d="M48.8,8.8c0.5,0,1.5,0.1,2.8,0.3l0.6,0.1l-0.1,1.5c-1.3-0.2-2.3-0.2-2.9-0.2c-1.4,0-2.4,0.3-2.9,1
			s-0.8,1.9-0.8,3.8s0.2,3.1,0.7,3.8s1.5,1.1,3,1.1l3-0.2l0.1,1.6c-1.5,0.2-2.7,0.3-3.5,0.3c-1.9,0-3.3-0.5-4-1.5
			c-0.7-1-1.1-2.7-1.1-5.1s0.4-4,1.2-5C45.6,9.3,46.9,8.8,48.8,8.8z"/>
		<path class="st1" d="M56.9,21.5H55v-18h1.9v6.2c1.3-0.6,2.6-1,3.9-1c1.7,0,2.8,0.5,3.4,1.3C64.7,11,65,12.6,65,15v6.6h-1.9V15
			c0-1.7-0.2-2.9-0.5-3.6s-1.1-1-2.2-1c-1.1,0-2.1,0.2-3.1,0.6l-0.5,0.2V21.5z"/>
		<path class="st1" d="M76.3,10.7v10.9h-1.9V10.7h-1.6V9h1.6V7.9c0-1.8,0.3-3,0.8-3.6s1.4-1,2.6-1l2.5,0.2l0,1.6C79.4,5,78.6,5,78,5
			c-0.6,0-1,0.2-1.3,0.6C76.5,6,76.3,6.8,76.3,8V9H80v1.6H76.3z"/>
		<path class="st1" d="M90,9h1.9v12.5H90v-0.9c-1.3,0.8-2.5,1.1-3.7,1.1c-1.7,0-2.8-0.4-3.4-1.3c-0.6-0.9-0.8-2.5-0.8-4.9V9H84v6.5
			c0,1.8,0.2,3,0.5,3.7c0.3,0.6,1,0.9,2.1,0.9c0.6,0,1.1-0.1,1.7-0.2c0.6-0.2,1-0.3,1.3-0.5l0.5-0.2V9z"/>
		<path class="st1" d="M95.6,21.5v-18h1.9v18H95.6z"/>
		<path class="st1" d="M101.4,21.5v-18h1.9v18H101.4z"/>
		<path class="st1" d="M116.5,10.5c-1.8,0-2.7,0.6-2.7,1.9c0,0.6,0.2,1,0.6,1.2c0.4,0.2,1.4,0.5,2.9,0.8c1.5,0.3,2.5,0.6,3.1,1.1
			c0.6,0.5,0.9,1.3,0.9,2.6s-0.4,2.2-1.2,2.8c-0.8,0.6-2,0.9-3.6,0.9c-1,0-2.3-0.1-3.7-0.3l-0.8-0.1l0.1-1.6
			c1.9,0.3,3.3,0.4,4.3,0.4c1,0,1.7-0.2,2.2-0.5c0.5-0.3,0.8-0.8,0.8-1.5s-0.2-1.2-0.6-1.5c-0.4-0.3-1.4-0.5-2.9-0.7
			c-1.5-0.2-2.5-0.6-3.1-1s-0.9-1.3-0.9-2.5s0.4-2.1,1.3-2.7c0.9-0.6,1.9-0.9,3.2-0.9c1,0,2.3,0.1,3.8,0.3l0.7,0.1l0,1.6
			C119,10.6,117.5,10.5,116.5,10.5z"/>
		<path class="st1" d="M126,21.5h-1.9v-18h1.9v6.2c1.3-0.6,2.6-1,3.9-1c1.7,0,2.8,0.5,3.4,1.3c0.6,0.9,0.9,2.5,0.9,4.8v6.6h-1.9V15
			c0-1.7-0.2-2.9-0.5-3.6s-1.1-1-2.2-1c-1.1,0-2.1,0.2-3.1,0.6l-0.5,0.2V21.5z"/>
		<path class="st1" d="M137,15.3c0-2.3,0.4-3.9,1.2-4.9c0.8-1,2.2-1.5,4.1-1.5s3.3,0.5,4.1,1.5s1.2,2.7,1.2,4.9c0,2.3-0.4,3.9-1.2,5
			s-2.2,1.5-4.2,1.5c-2,0-3.4-0.5-4.2-1.5S137,17.6,137,15.3z M139,15.2c0,1.8,0.2,3.1,0.7,3.8c0.4,0.7,1.4,1.1,2.8,1.1
			s2.3-0.4,2.8-1.1c0.4-0.7,0.6-2,0.6-3.8s-0.2-3.1-0.7-3.8c-0.5-0.7-1.4-1-2.7-1s-2.2,0.3-2.7,1C139.2,12.2,139,13.4,139,15.2z"/>
		<path class="st1" d="M149.6,9h1.9l2.5,10.9h0.4l3-10.6h1.9l3,10.6h0.4L165.3,9h1.9l-3,12.5H161l-2.7-9.8l-2.6,9.8h-3.1L149.6,9z"
			/>
		<path class="st1" d="M169.7,21.5V9h1.9v1.7c1.4-1,3-1.7,4.6-2v1.9c-0.7,0.1-1.4,0.3-2.2,0.6c-0.8,0.3-1.3,0.5-1.7,0.8l-0.6,0.3
			v9.2H169.7z"/>
		<path class="st1" d="M186.6,20l0.7-0.1l0,1.5c-1.9,0.3-3.5,0.4-4.9,0.4c-1.8,0-3.1-0.5-3.8-1.6c-0.8-1-1.1-2.7-1.1-4.9
			c0-4.4,1.7-6.6,5.2-6.6c1.7,0,2.9,0.5,3.8,1.4c0.8,0.9,1.3,2.4,1.3,4.4l-0.1,1.4h-8.3c0,1.4,0.3,2.4,0.8,3.1c0.5,0.7,1.4,1,2.6,1
			C184.1,20.1,185.3,20.1,186.6,20z M185.9,14.6c0-1.5-0.2-2.6-0.7-3.3c-0.5-0.6-1.3-1-2.4-1s-1.9,0.3-2.5,1s-0.8,1.7-0.9,3.2H185.9
			z"/>
		<path class="st1" d="M199.2,20l0.7-0.1l0,1.5c-1.9,0.3-3.5,0.4-4.9,0.4c-1.8,0-3.1-0.5-3.8-1.6c-0.8-1-1.1-2.7-1.1-4.9
			c0-4.4,1.7-6.6,5.2-6.6c1.7,0,2.9,0.5,3.8,1.4c0.8,0.9,1.3,2.4,1.3,4.4l-0.1,1.4h-8.3c0,1.4,0.3,2.4,0.8,3.1c0.5,0.7,1.4,1,2.6,1
			C196.7,20.1,198,20.1,199.2,20z M198.6,14.6c0-1.5-0.2-2.6-0.7-3.3c-0.5-0.6-1.3-1-2.4-1s-1.9,0.3-2.5,1s-0.8,1.7-0.9,3.2H198.6z"
			/>
		<path class="st1" d="M203.5,21.5v-18h1.9v18H203.5z"/>
	</g>
</g>
</svg>
