<?xml version="1.0" encoding="utf-8"?>
<!-- Generator: Adobe Illustrator 24.2.1, SVG Export Plug-In . SVG Version: 6.00 Build 0)  -->
<svg version="1.1" id="Warstwa_1" xmlns="http://www.w3.org/2000/svg" xmlns:xlink="http://www.w3.org/1999/xlink" x="0px" y="0px"
	 viewBox="0 0 18.38 18.38" style="enable-background:new 0 0 18.38 18.38;" xml:space="preserve">
<style type="text/css">
	.st0{fill:#1D1D1B;}
</style>
<g>
	<path class="st0" d="M13.15,18.38H5.23C2.35,18.38,0,16.04,0,13.15V5.23C0,2.35,2.35,0,5.23,0h7.92c2.89,0,5.23,2.35,5.23,5.23
		v7.92C18.38,16.04,16.04,18.38,13.15,18.38 M5.23,1.58c-2.02,0-3.66,1.64-3.66,3.66v7.92c0,2.02,1.64,3.66,3.66,3.66h7.92
		c2.02,0,3.66-1.64,3.66-3.66V5.23c0-2.02-1.64-3.66-3.66-3.66H5.23V1.58z"/>
	<path class="st0" d="M9.19,13.9c-2.6,0-4.71-2.11-4.71-4.71s2.11-4.71,4.71-4.71s4.71,2.11,4.71,4.71S11.79,13.9,9.19,13.9
		 M9.19,6.06c-1.73,0-3.13,1.4-3.13,3.13s1.4,3.13,3.13,3.13s3.13-1.4,3.13-3.13C12.32,7.47,10.92,6.06,9.19,6.06"/>
	<path class="st0" d="M15.23,4.22c0,0.62-0.51,1.13-1.13,1.13s-1.13-0.51-1.13-1.13s0.51-1.13,1.13-1.13
		C14.73,3.08,15.23,3.59,15.23,4.22"/>
</g>
</svg>
