<?xml version="1.0" encoding="utf-8"?>
<!-- Generator: Adobe Illustrator 24.2.1, SVG Export Plug-In . SVG Version: 6.00 Build 0)  -->
<svg version="1.1" id="Warstwa_1" xmlns="http://www.w3.org/2000/svg" xmlns:xlink="http://www.w3.org/1999/xlink" x="0px" y="0px"
	 viewBox="0 0 48 48" style="enable-background:new 0 0 48 48;" xml:space="preserve">
<style type="text/css">
	.st0{fill:none;stroke:#C6C6C6;stroke-miterlimit:10;}
	.st1{fill:#C6C6C6;}
</style>
<circle class="st0" cx="24" cy="24" r="23.01"/>
<g>
	<path class="st1" d="M27.96,33.19h-7.92c-2.88,0-5.23-2.34-5.23-5.23v-7.92c0-2.88,2.35-5.23,5.23-5.23h7.92
		c2.89,0,5.23,2.35,5.23,5.23v7.92C33.19,30.85,30.85,33.19,27.96,33.19 M20.04,16.39c-2.02,0-3.66,1.64-3.66,3.66v7.92
		c0,2.02,1.64,3.66,3.66,3.66h7.92c2.02,0,3.66-1.64,3.66-3.66v-7.93c0-2.02-1.64-3.66-3.66-3.66h-7.92V16.39z"/>
	<path class="st1" d="M24,28.71c-2.6,0-4.71-2.11-4.71-4.71s2.11-4.71,4.71-4.71s4.71,2.11,4.71,4.71S26.6,28.71,24,28.71 M24,20.87
		c-1.73,0-3.13,1.4-3.13,3.13s1.4,3.13,3.13,3.13s3.13-1.4,3.13-3.13C27.13,22.28,25.73,20.87,24,20.87"/>
	<path class="st1" d="M30.04,19.03c0,0.62-0.51,1.13-1.13,1.13s-1.13-0.51-1.13-1.13s0.51-1.13,1.13-1.13
		C29.54,17.89,30.04,18.4,30.04,19.03"/>
</g>
</svg>
