<?xml version="1.0" encoding="utf-8"?>
<!-- Generator: Adobe Illustrator 24.2.1, SVG Export Plug-In . SVG Version: 6.00 Build 0)  -->
<svg version="1.1" id="Warstwa_1" xmlns="http://www.w3.org/2000/svg" xmlns:xlink="http://www.w3.org/1999/xlink" x="0px" y="0px"
	 viewBox="0 0 48 48" style="enable-background:new 0 0 48 48;" xml:space="preserve">
<style type="text/css">
	.st0{fill:none;stroke:#C6C6C6;stroke-miterlimit:10;}
	.st1{fill:#C6C6C6;}
</style>
<circle class="st0" cx="24" cy="24" r="23.01"/>
<g>
	<path class="st1" d="M17.04,15.21c-1.35,0-2.23,0.89-2.23,2.05c0,1.14,0.86,2.05,2.18,2.05h0.03c1.37,0,2.23-0.91,2.23-2.05
		C19.22,16.1,18.39,15.21,17.04,15.21z"/>
	<path class="st1" d="M15.04,20.93h3.94v11.86h-3.94C15.04,32.79,15.04,20.93,15.04,20.93z"/>
	<path class="st1" d="M28.66,20.65c-2.13,0-3.55,2-3.55,2v-1.72h-3.94v11.86h3.94v-6.62c0-0.35,0.03-0.71,0.13-0.96
		c0.28-0.71,0.93-1.44,2.02-1.44c1.43,0,2,1.09,2,2.68v6.34h3.94v-6.8C33.19,22.35,31.25,20.65,28.66,20.65z"/>
</g>
</svg>
