<?xml version="1.0" encoding="utf-8"?>
<!-- Generator: Adobe Illustrator 24.2.1, SVG Export Plug-In . SVG Version: 6.00 Build 0)  -->
<svg version="1.1" id="Warstwa_1" xmlns="http://www.w3.org/2000/svg" xmlns:xlink="http://www.w3.org/1999/xlink" x="0px" y="0px"
	 viewBox="0 0 48 48" style="enable-background:new 0 0 48 48;" xml:space="preserve">
<style type="text/css">
	.st0{fill:none;stroke:#C6C6C6;stroke-miterlimit:10;}
	.st1{fill:#C6C6C6;}
</style>
<circle class="st0" cx="24" cy="24" r="23.01"/>
<g>
	<path class="st1" d="M32.81,19.58c-0.21-0.79-0.83-1.41-1.62-1.62c-1.44-0.4-7.19-0.4-7.19-0.4s-5.75,0-7.19,0.38
		c-0.77,0.21-1.41,0.85-1.62,1.64C14.81,21.02,14.81,24,14.81,24s0,3,0.38,4.42c0.21,0.79,0.83,1.41,1.62,1.62
		c1.45,0.39,7.19,0.39,7.19,0.39s5.75,0,7.19-0.38c0.79-0.21,1.41-0.83,1.62-1.62c0.38-1.44,0.38-4.42,0.38-4.42
		S33.21,21.02,32.81,19.58z M22.17,26.76v-5.51L26.95,24L22.17,26.76z"/>
</g>
</svg>
